<mxfile host="app.diagrams.net" agent="Mozilla/5.0 (Windows NT 10.0; Win64; x64) AppleWebKit/537.36 (KHTML, like Gecko) Chrome/131.0.0.0 Safari/537.36 OPR/116.0.0.0" version="24.8.9">
  <diagram name="Page-1" id="gGyO2UPrUOb89BRvLtAq">
    <mxGraphModel dx="-308" dy="1853" grid="1" gridSize="10" guides="1" tooltips="1" connect="1" arrows="1" fold="1" page="1" pageScale="1" pageWidth="850" pageHeight="1100" math="0" shadow="0">
      <root>
        <mxCell id="0" />
        <mxCell id="1" parent="0" />
        <mxCell id="HY_N2H4hG41amP0yFidw-3" style="edgeStyle=orthogonalEdgeStyle;rounded=0;orthogonalLoop=1;jettySize=auto;html=1;entryX=0.5;entryY=0;entryDx=0;entryDy=0;" edge="1" parent="1" source="HY_N2H4hG41amP0yFidw-4" target="HY_N2H4hG41amP0yFidw-6">
          <mxGeometry relative="1" as="geometry" />
        </mxCell>
        <mxCell id="HY_N2H4hG41amP0yFidw-4" value="Start&amp;nbsp;" style="ellipse;whiteSpace=wrap;html=1;" vertex="1" parent="1">
          <mxGeometry x="2080" y="-420" width="120" height="80" as="geometry" />
        </mxCell>
        <mxCell id="HY_N2H4hG41amP0yFidw-5" style="edgeStyle=orthogonalEdgeStyle;rounded=0;orthogonalLoop=1;jettySize=auto;html=1;entryX=0.5;entryY=0;entryDx=0;entryDy=0;" edge="1" parent="1" source="HY_N2H4hG41amP0yFidw-6">
          <mxGeometry relative="1" as="geometry">
            <mxPoint x="2140" y="-210" as="targetPoint" />
          </mxGeometry>
        </mxCell>
        <mxCell id="HY_N2H4hG41amP0yFidw-6" value="array" style="shape=parallelogram;perimeter=parallelogramPerimeter;whiteSpace=wrap;html=1;fixedSize=1;" vertex="1" parent="1">
          <mxGeometry x="2080" y="-310" width="120" height="60" as="geometry" />
        </mxCell>
        <mxCell id="HY_N2H4hG41amP0yFidw-7" style="edgeStyle=orthogonalEdgeStyle;rounded=0;orthogonalLoop=1;jettySize=auto;html=1;entryX=0.5;entryY=0;entryDx=0;entryDy=0;" edge="1" parent="1" source="HY_N2H4hG41amP0yFidw-9" target="HY_N2H4hG41amP0yFidw-14">
          <mxGeometry relative="1" as="geometry" />
        </mxCell>
        <mxCell id="HY_N2H4hG41amP0yFidw-8" style="edgeStyle=orthogonalEdgeStyle;rounded=0;orthogonalLoop=1;jettySize=auto;html=1;entryX=0.5;entryY=0;entryDx=0;entryDy=0;" edge="1" parent="1" source="HY_N2H4hG41amP0yFidw-9" target="HY_N2H4hG41amP0yFidw-16">
          <mxGeometry relative="1" as="geometry" />
        </mxCell>
        <mxCell id="HY_N2H4hG41amP0yFidw-9" value="repeat size times" style="shape=hexagon;perimeter=hexagonPerimeter2;whiteSpace=wrap;html=1;fixedSize=1;" vertex="1" parent="1">
          <mxGeometry x="2080" y="-80" width="120" height="80" as="geometry" />
        </mxCell>
        <mxCell id="HY_N2H4hG41amP0yFidw-10" style="edgeStyle=orthogonalEdgeStyle;rounded=0;orthogonalLoop=1;jettySize=auto;html=1;entryX=0.5;entryY=0;entryDx=0;entryDy=0;" edge="1" parent="1" source="HY_N2H4hG41amP0yFidw-11" target="HY_N2H4hG41amP0yFidw-9">
          <mxGeometry relative="1" as="geometry" />
        </mxCell>
        <mxCell id="HY_N2H4hG41amP0yFidw-11" value="int i, j;&lt;div&gt;int temp;&lt;/div&gt;&lt;div&gt;size&lt;span style=&quot;white-space: pre;&quot;&gt;&amp;nbsp;= sizeof(arr) / sizeof(arr[0]) &lt;/span&gt;&lt;/div&gt;" style="rounded=0;whiteSpace=wrap;html=1;" vertex="1" parent="1">
          <mxGeometry x="2035" y="-210" width="210" height="60" as="geometry" />
        </mxCell>
        <mxCell id="HY_N2H4hG41amP0yFidw-12" value="&lt;span style=&quot;text-align: left;&quot;&gt;&amp;nbsp;for (i = 0; i &amp;lt; size - 1; i++)&lt;/span&gt;" style="text;html=1;align=center;verticalAlign=middle;whiteSpace=wrap;rounded=0;" vertex="1" parent="1">
          <mxGeometry x="1960" y="-100" width="140" height="30" as="geometry" />
        </mxCell>
        <mxCell id="HY_N2H4hG41amP0yFidw-13" style="edgeStyle=orthogonalEdgeStyle;rounded=0;orthogonalLoop=1;jettySize=auto;html=1;entryX=0;entryY=0.5;entryDx=0;entryDy=0;" edge="1" parent="1" source="HY_N2H4hG41amP0yFidw-14" target="HY_N2H4hG41amP0yFidw-9">
          <mxGeometry relative="1" as="geometry">
            <Array as="points">
              <mxPoint x="2140" y="100" />
              <mxPoint x="2060" y="100" />
              <mxPoint x="2060" y="-40" />
            </Array>
          </mxGeometry>
        </mxCell>
        <mxCell id="HY_N2H4hG41amP0yFidw-14" value="printf(&quot;%d&quot;, arr[i])" style="rounded=0;whiteSpace=wrap;html=1;" vertex="1" parent="1">
          <mxGeometry x="2080" y="20" width="120" height="60" as="geometry" />
        </mxCell>
        <mxCell id="HY_N2H4hG41amP0yFidw-15" style="edgeStyle=orthogonalEdgeStyle;rounded=0;orthogonalLoop=1;jettySize=auto;html=1;entryX=0.5;entryY=0;entryDx=0;entryDy=0;" edge="1" parent="1" source="HY_N2H4hG41amP0yFidw-16" target="HY_N2H4hG41amP0yFidw-18">
          <mxGeometry relative="1" as="geometry" />
        </mxCell>
        <mxCell id="HY_N2H4hG41amP0yFidw-16" value="printf(&quot;\n&quot;)" style="rounded=0;whiteSpace=wrap;html=1;" vertex="1" parent="1">
          <mxGeometry x="2245" y="30" width="120" height="60" as="geometry" />
        </mxCell>
        <mxCell id="HY_N2H4hG41amP0yFidw-17" style="edgeStyle=orthogonalEdgeStyle;rounded=0;orthogonalLoop=1;jettySize=auto;html=1;entryX=0.5;entryY=0;entryDx=0;entryDy=0;" edge="1" parent="1" source="HY_N2H4hG41amP0yFidw-18" target="HY_N2H4hG41amP0yFidw-32">
          <mxGeometry relative="1" as="geometry" />
        </mxCell>
        <mxCell id="HY_N2H4hG41amP0yFidw-18" value="&lt;span style=&quot;text-align: left;&quot;&gt;&amp;nbsp; &amp;nbsp; for (i = 0; i &amp;lt; size - 1; i++)&lt;/span&gt;" style="shape=hexagon;perimeter=hexagonPerimeter2;whiteSpace=wrap;html=1;fixedSize=1;" vertex="1" parent="1">
          <mxGeometry x="2197.5" y="130" width="215" height="80" as="geometry" />
        </mxCell>
        <mxCell id="HY_N2H4hG41amP0yFidw-19" style="edgeStyle=orthogonalEdgeStyle;rounded=0;orthogonalLoop=1;jettySize=auto;html=1;entryX=0.5;entryY=0;entryDx=0;entryDy=0;" edge="1" parent="1" source="HY_N2H4hG41amP0yFidw-21" target="HY_N2H4hG41amP0yFidw-24">
          <mxGeometry relative="1" as="geometry" />
        </mxCell>
        <mxCell id="HY_N2H4hG41amP0yFidw-20" style="edgeStyle=orthogonalEdgeStyle;rounded=0;orthogonalLoop=1;jettySize=auto;html=1;entryX=0;entryY=0.5;entryDx=0;entryDy=0;" edge="1" parent="1" source="HY_N2H4hG41amP0yFidw-21" target="HY_N2H4hG41amP0yFidw-18">
          <mxGeometry relative="1" as="geometry">
            <Array as="points">
              <mxPoint x="2150" y="290" />
              <mxPoint x="2150" y="170" />
            </Array>
          </mxGeometry>
        </mxCell>
        <mxCell id="HY_N2H4hG41amP0yFidw-21" value="&lt;span style=&quot;text-align: left;&quot;&gt;&amp;nbsp; &amp;nbsp; &amp;nbsp; &amp;nbsp; for (j = 0; j &amp;lt; size - 1 - i; j++)&amp;nbsp;&lt;/span&gt;" style="shape=hexagon;perimeter=hexagonPerimeter2;whiteSpace=wrap;html=1;fixedSize=1;" vertex="1" parent="1">
          <mxGeometry x="2180" y="250" width="235" height="80" as="geometry" />
        </mxCell>
        <mxCell id="HY_N2H4hG41amP0yFidw-22" style="edgeStyle=orthogonalEdgeStyle;rounded=0;orthogonalLoop=1;jettySize=auto;html=1;entryX=0.5;entryY=0;entryDx=0;entryDy=0;" edge="1" parent="1" source="HY_N2H4hG41amP0yFidw-24" target="HY_N2H4hG41amP0yFidw-27">
          <mxGeometry relative="1" as="geometry" />
        </mxCell>
        <mxCell id="HY_N2H4hG41amP0yFidw-23" style="edgeStyle=orthogonalEdgeStyle;rounded=0;orthogonalLoop=1;jettySize=auto;html=1;" edge="1" parent="1" source="HY_N2H4hG41amP0yFidw-24">
          <mxGeometry relative="1" as="geometry">
            <mxPoint x="2298" y="340" as="targetPoint" />
            <Array as="points">
              <mxPoint x="2390" y="400" />
              <mxPoint x="2390" y="340" />
            </Array>
          </mxGeometry>
        </mxCell>
        <mxCell id="HY_N2H4hG41amP0yFidw-24" value="if&lt;div&gt;arr[j] &amp;gt; arr[j+1]&lt;/div&gt;" style="rhombus;whiteSpace=wrap;html=1;" vertex="1" parent="1">
          <mxGeometry x="2217.5" y="360" width="160" height="80" as="geometry" />
        </mxCell>
        <mxCell id="HY_N2H4hG41amP0yFidw-25" style="edgeStyle=orthogonalEdgeStyle;rounded=0;orthogonalLoop=1;jettySize=auto;html=1;entryX=0.53;entryY=0.025;entryDx=0;entryDy=0;entryPerimeter=0;" edge="1" parent="1" source="HY_N2H4hG41amP0yFidw-18" target="HY_N2H4hG41amP0yFidw-21">
          <mxGeometry relative="1" as="geometry" />
        </mxCell>
        <mxCell id="HY_N2H4hG41amP0yFidw-26" style="edgeStyle=orthogonalEdgeStyle;rounded=0;orthogonalLoop=1;jettySize=auto;html=1;entryX=1;entryY=0.5;entryDx=0;entryDy=0;" edge="1" parent="1" source="HY_N2H4hG41amP0yFidw-27" target="HY_N2H4hG41amP0yFidw-21">
          <mxGeometry relative="1" as="geometry">
            <Array as="points">
              <mxPoint x="2150" y="540" />
              <mxPoint x="2435" y="540" />
              <mxPoint x="2435" y="290" />
            </Array>
          </mxGeometry>
        </mxCell>
        <mxCell id="HY_N2H4hG41amP0yFidw-27" value="temp = arr [j]&lt;div&gt;arr[j] = arr[j + 1]&lt;/div&gt;&lt;div&gt;arr[j + 1] = temp&lt;/div&gt;" style="rounded=0;whiteSpace=wrap;html=1;" vertex="1" parent="1">
          <mxGeometry x="2090" y="440" width="120" height="60" as="geometry" />
        </mxCell>
        <mxCell id="HY_N2H4hG41amP0yFidw-28" style="edgeStyle=orthogonalEdgeStyle;rounded=0;orthogonalLoop=1;jettySize=auto;html=1;entryX=0;entryY=0.5;entryDx=0;entryDy=0;" edge="1" parent="1" source="HY_N2H4hG41amP0yFidw-29" target="HY_N2H4hG41amP0yFidw-32">
          <mxGeometry relative="1" as="geometry">
            <Array as="points">
              <mxPoint x="2590" y="440" />
              <mxPoint x="2510" y="440" />
              <mxPoint x="2510" y="270" />
            </Array>
          </mxGeometry>
        </mxCell>
        <mxCell id="HY_N2H4hG41amP0yFidw-29" value="printf(&quot;%d&quot;, arr[i])" style="shape=parallelogram;perimeter=parallelogramPerimeter;whiteSpace=wrap;html=1;fixedSize=1;" vertex="1" parent="1">
          <mxGeometry x="2530" y="350" width="120" height="60" as="geometry" />
        </mxCell>
        <mxCell id="HY_N2H4hG41amP0yFidw-30" style="edgeStyle=orthogonalEdgeStyle;rounded=0;orthogonalLoop=1;jettySize=auto;html=1;entryX=0.5;entryY=0;entryDx=0;entryDy=0;" edge="1" parent="1" source="HY_N2H4hG41amP0yFidw-32" target="HY_N2H4hG41amP0yFidw-29">
          <mxGeometry relative="1" as="geometry" />
        </mxCell>
        <mxCell id="HY_N2H4hG41amP0yFidw-31" style="edgeStyle=orthogonalEdgeStyle;rounded=0;orthogonalLoop=1;jettySize=auto;html=1;entryX=0.5;entryY=0;entryDx=0;entryDy=0;" edge="1" parent="1" source="HY_N2H4hG41amP0yFidw-32" target="HY_N2H4hG41amP0yFidw-34">
          <mxGeometry relative="1" as="geometry" />
        </mxCell>
        <mxCell id="HY_N2H4hG41amP0yFidw-32" value="repeat for each in size&amp;nbsp;" style="shape=hexagon;perimeter=hexagonPerimeter2;whiteSpace=wrap;html=1;fixedSize=1;" vertex="1" parent="1">
          <mxGeometry x="2530" y="230" width="120" height="80" as="geometry" />
        </mxCell>
        <mxCell id="HY_N2H4hG41amP0yFidw-33" value="&lt;span style=&quot;caret-color: rgb(0, 0, 0); color: rgb(0, 0, 0); font-family: Helvetica; font-size: 12px; font-style: normal; font-variant-caps: normal; font-weight: 400; letter-spacing: normal; orphans: auto; text-align: left; text-indent: 0px; text-transform: none; white-space: normal; widows: auto; word-spacing: 0px; -webkit-text-stroke-width: 0px; background-color: rgb(251, 251, 251); text-decoration: none; display: inline !important; float: none;&quot;&gt;&amp;nbsp; &amp;nbsp; for (i = 0; i &amp;lt; size; i++) {&lt;/span&gt;&lt;br style=&quot;padding: 0px; margin: 0px; caret-color: rgb(0, 0, 0); color: rgb(0, 0, 0); font-family: Helvetica; font-size: 12px; font-style: normal; font-variant-caps: normal; font-weight: 400; letter-spacing: normal; orphans: auto; text-align: left; text-indent: 0px; text-transform: none; white-space: normal; widows: auto; word-spacing: 0px; -webkit-text-stroke-width: 0px; text-decoration: none;&quot;&gt;" style="text;whiteSpace=wrap;html=1;" vertex="1" parent="1">
          <mxGeometry x="2620" y="210" width="170" height="40" as="geometry" />
        </mxCell>
        <mxCell id="HY_N2H4hG41amP0yFidw-34" value="end" style="ellipse;whiteSpace=wrap;html=1;" vertex="1" parent="1">
          <mxGeometry x="2720" y="330" width="120" height="80" as="geometry" />
        </mxCell>
      </root>
    </mxGraphModel>
  </diagram>
</mxfile>
